<svg width="30" height="52" viewBox="0 0 30 52" fill="none" xmlns="http://www.w3.org/2000/svg">
<path d="M7.3253 14.7175C4.90103 14.7175 2.58907 14.7175 0.164806 14.7175C0.0207663 12.2175 0.650634 9.93485 1.84934 7.84504C4.92056 2.48868 9.61773 -0.245678 15.7724 0.193768C21.8123 0.625891 26.1726 3.85338 28.3454 9.53445C30.5548 15.3107 29.3341 20.589 25.091 25.0713C23.4187 26.8389 21.5633 28.4477 19.7054 30.0273C18.724 30.8623 18.2382 31.7363 18.3651 33.0522C18.4847 34.2973 18.3895 35.5594 18.3895 36.8973C15.9506 36.8973 13.6142 36.8973 11.063 36.8973C11.063 35.7303 11.0532 34.5316 11.0655 33.3353C11.0801 31.5898 10.6236 29.6294 11.2705 28.1572C11.9175 26.6851 13.6679 25.6939 14.9448 24.5049C16.6122 22.9522 18.3358 21.4605 19.9495 19.8541C22.1394 17.6715 22.6448 14.3732 21.3314 11.6194C20.0203 8.8704 17.0956 7.19806 14.0634 7.46417C11.0508 7.73028 8.4825 9.88844 7.67441 12.8596C7.51817 13.4358 7.44981 14.0412 7.3253 14.7175Z" fill="white"/>
<path d="M18.2919 51.5921C15.8944 51.5921 13.5825 51.5921 11.168 51.5921C11.168 49.1945 11.168 46.8263 11.168 44.3775C13.5117 44.3775 15.8505 44.3775 18.2919 44.3775C18.2919 46.7311 18.2919 49.1018 18.2919 51.5921Z" fill="white"/>
</svg>
