<svg width="47" height="70" viewBox="0 0 47 70" fill="none" xmlns="http://www.w3.org/2000/svg">
<path d="M46.3391 24.1703C46.2773 29.0999 45.048 33.6787 42.6252 37.8964C36.7812 48.0661 30.9209 58.2257 25.0541 68.3785C23.8801 70.4098 22.1695 70.3828 20.9988 68.3245C15.2621 58.2358 9.43106 48.2044 3.84071 38.028C-1.10897 29.0156 -1.51548 19.8109 4.03584 10.8761C9.22293 2.52847 19.054 -1.43954 28.2639 0.77391C37.6625 3.0346 44.661 10.8593 46.0171 20.6477C46.1797 21.8151 46.235 22.9961 46.3391 24.1703ZM22.8947 36.9752C29.3794 37.1001 34.7811 31.6542 34.947 24.8316C35.1063 18.1846 29.8119 12.4384 23.402 12.3034C16.6865 12.1617 11.2132 17.5671 11.1156 24.4301C11.0181 31.2594 16.2637 36.847 22.8947 36.9752Z" fill="white"/>
</svg>
