<svg width="65" height="54" viewBox="0 0 65 54" fill="none" xmlns="http://www.w3.org/2000/svg">
<path d="M29.5551 8.82219C31.0478 6.22747 32.4006 3.83858 33.812 1.4868C33.9747 1.21349 34.4657 1.01779 34.8039 1.01779C39.7211 0.994167 44.6415 0.903068 49.5554 1.04141C57.2206 1.25735 63.1654 7.85044 63.0776 15.8472C62.9931 23.6381 56.8791 30.0557 49.2822 30.1097C37.9845 30.1906 26.6867 30.1232 15.3857 30.14C11.6361 30.1468 8.69291 32.4648 7.91891 35.9503C6.86523 40.6944 10.1921 45.1786 14.8849 45.2495C18.8654 45.3102 22.8493 45.263 26.8331 45.263C38.8235 45.263 50.8107 45.263 62.8012 45.263C63.276 45.263 63.754 45.263 64.1248 45.263C64.2581 47.9083 64.3849 50.4119 64.5183 53.0303C64.3036 53.0404 63.9199 53.0809 63.5362 53.0809C47.4025 53.0842 31.2657 53.0943 15.132 53.0775C7.25548 53.0707 1.02773 47.1019 0.211458 38.8487C-0.523515 31.4087 4.70259 24.2589 12.0978 22.6663C13.2816 22.4132 14.5174 22.3424 15.7304 22.339C26.6217 22.3154 37.5162 22.3053 48.4074 22.339C50.9018 22.3458 52.9799 21.5663 54.4043 19.3967C55.8222 17.2407 55.9848 14.8923 54.8563 12.5607C53.7051 10.182 51.7636 8.86605 49.1912 8.84243C43.1781 8.78507 37.1617 8.81881 31.1453 8.81881C30.6998 8.82218 30.2543 8.82219 29.5551 8.82219Z" fill="white"/>
</svg>
