<svg width="54" height="86" viewBox="0 0 54 86" fill="none" xmlns="http://www.w3.org/2000/svg">
<path d="M50.9298 17.3856C38.032 12.0747 25.1505 6.71996 12.2625 1.38206C8.83802 -0.0350781 6.44773 1.66548 6.44773 5.50864C6.44448 22.5042 6.44773 39.4998 6.44773 56.4987V57.7202H13.9893V56.4481C13.9893 52.8209 14.0153 49.1937 13.9731 45.5665C13.9633 44.7061 14.1877 44.2438 14.978 43.8389C26.8448 37.7655 38.6824 31.6346 50.5493 25.5612C52.0063 24.8155 53.2811 23.9754 53.9998 22.4165V20.392C53.3916 18.9344 52.3835 17.9829 50.9298 17.3856ZM16.7634 33.5343V12.9891L39.1247 20.7834L16.7634 33.5343Z" fill="white"/>
<path d="M0.74133 75.2318C0.767346 69.7522 5.01132 65.3895 10.3025 65.4064C15.5644 65.4232 19.8408 69.8872 19.8051 75.3196C19.7693 80.7587 15.457 85.1855 10.2147 85.1687C4.9658 85.1518 0.715313 80.6946 0.74133 75.2318Z" fill="white"/>
</svg>
