<svg width="36" height="34" viewBox="0 0 36 34" fill="none" xmlns="http://www.w3.org/2000/svg">
<path d="M17.4062 0C19.5888 0.0235044 21.167 0.980471 22.1576 2.83732C22.9265 4.27781 23.5578 5.79553 24.3671 7.20915C24.629 7.66581 25.2233 8.10568 25.7371 8.21648C27.1675 8.52876 28.6315 8.66978 30.0855 8.86789C32.2983 9.16674 33.9706 10.2144 34.7059 12.3936C35.4514 14.603 34.857 16.5136 33.2016 18.1219C32.117 19.1729 30.9854 20.1802 29.9814 21.3051C29.6288 21.698 29.4005 22.4031 29.4576 22.9236C29.6322 24.5017 29.9915 26.0597 30.2467 27.6312C30.5858 29.713 29.9545 31.4691 28.2689 32.7451C26.59 34.0143 24.7196 34.1923 22.8191 33.2756C21.3114 32.5503 19.8272 31.7679 18.3665 30.9453C17.7453 30.5961 17.2584 30.6062 16.644 30.9554C15.2975 31.7209 13.9106 32.416 12.5339 33.1278C10.5763 34.1385 8.63544 34.1285 6.84906 32.8055C5.03245 31.459 4.37095 29.6055 4.81419 27.3659C4.96865 26.5869 4.95186 25.7508 5.22385 25.0188C6.0566 22.7825 5.43539 21.1137 3.53148 19.7471C2.75581 19.1931 2.11446 18.4376 1.46303 17.7291C-1.35086 14.6869 0.0829506 9.9726 4.12918 9.07608C5.8014 8.70672 7.51727 8.52876 9.21971 8.30379C9.94837 8.20977 10.4118 7.91764 10.7274 7.21251C11.3956 5.72501 12.131 4.26438 12.8932 2.82053C13.8536 1.00062 15.3982 0.0671556 17.4062 0ZM5.45218 14.1127C7.04381 15.7715 8.49777 17.3295 10.0088 18.8338C10.8819 19.7034 11.2546 20.647 11.0229 21.8894C10.6199 24.0451 10.2976 26.2175 9.90807 28.5848C11.8926 27.5573 13.7125 26.7044 15.4385 25.6904C16.8622 24.8509 18.1281 24.8408 19.5552 25.6803C21.2946 26.7011 23.1246 27.5707 25.0823 28.5915C24.7028 26.2511 24.4275 24.1357 23.991 22.0505C23.6955 20.6369 24.1757 19.6497 25.1427 18.6894C26.6235 17.2254 28.0171 15.6741 29.4979 14.1094C28.1144 13.8945 26.6773 13.4748 25.2468 13.4848C22.2113 13.505 20.4518 12.0712 19.4948 9.27754C19.0348 7.93779 18.2591 6.70884 17.5204 5.22135C16.4257 7.40726 15.4452 9.29769 14.5285 11.2217C13.9711 12.3868 13.1417 13.0181 11.8355 13.1726C9.72003 13.4244 7.61801 13.787 5.45218 14.1127Z" fill="white"/>
</svg>
