<svg width="28" height="27" viewBox="0 0 28 27" fill="none" xmlns="http://www.w3.org/2000/svg">
<path d="M4.15621 21.9205C4.30059 21.0441 4.56251 19.8085 4.67332 18.5627C4.71361 18.1061 4.50878 17.5218 4.20993 17.1659C3.53836 16.3668 2.71232 15.7019 1.99374 14.9363C0.774834 13.6369 0.375248 12.0957 0.949443 10.4033C1.51692 8.72781 2.70561 7.45857 4.48528 7.42835C7.49393 7.37798 9.27359 6.09531 10.2675 3.24791C10.8451 1.59253 12.3763 0.816881 14.1828 0.806808C15.9826 0.800092 17.5843 1.5388 18.1283 3.19083C19.1054 6.15911 21.0496 7.14629 24.0046 7.45857C27.4632 7.82456 28.8399 12.0486 26.57 14.7248C25.8413 15.5844 24.9179 16.2828 24.2027 17.1525C23.887 17.5353 23.7024 18.1632 23.7326 18.6635C23.7897 19.6607 24.0583 20.6446 24.2027 21.6385C24.4545 23.3576 23.8937 24.8048 22.5372 25.8659C21.1369 26.9605 19.5453 27.1452 17.9167 26.4334C16.8825 25.9834 15.9255 25.3522 14.8879 24.9089C14.5018 24.7444 13.9242 24.7478 13.5347 24.9123C12.4602 25.3723 11.473 26.0372 10.3918 26.4837C7.35961 27.7496 4.1327 25.5469 4.15621 21.9205ZM18.9778 20.9703C17.2385 17.3002 18.3298 14.52 21.6138 12.4751C19.7501 12.0016 17.9134 11.9882 16.7146 11.1051C15.5192 10.2254 14.9685 8.47597 14.0955 7.04892C13.6422 7.95888 13.1586 8.79496 12.796 9.68142C12.242 11.0312 11.285 11.7263 9.84108 11.8573C8.87737 11.9446 7.92373 12.136 6.93988 12.2837C8.06141 13.6302 9.51536 14.7013 9.95524 16.0948C10.4052 17.5218 9.86122 19.2612 9.75713 20.7856C11.2245 20.198 12.7255 19.1201 14.2164 19.1302C15.7106 19.1369 17.1982 20.2316 18.9778 20.9703Z" fill="white"/>
</svg>
