<svg width="125" height="89" viewBox="0 0 125 89" fill="none" xmlns="http://www.w3.org/2000/svg">
<path d="M5.25868 36.8874C5.25868 52.6018 5.25868 68.1114 5.25868 83.715C13.9388 83.715 22.5517 83.715 31.2586 83.715C31.2586 83.0938 31.2586 82.5532 31.2586 82.0126C31.2586 56.0334 31.2586 30.0577 31.2586 4.07854C31.2586 1.2345 32.0007 0.479004 34.8046 0.479004C53.2695 0.479004 71.7378 0.479004 90.2027 0.479004C93.0031 0.479004 93.7486 1.23786 93.7486 4.0819C93.7486 30.061 93.7486 56.0368 93.7486 82.0159C93.7486 82.5565 93.7486 83.0971 93.7486 83.7217C102.429 83.7217 111.011 83.7217 119.705 83.7217C119.705 68.1685 119.705 52.6287 119.705 36.9512C119.255 36.931 118.812 36.8908 118.368 36.8908C113.207 36.8874 108.043 36.8874 102.882 36.8874C102.546 36.8874 102.21 36.8941 101.875 36.884C100.071 36.8404 98.9801 35.8364 99.007 34.2583C99.0339 32.7338 100.108 31.7567 101.851 31.7466C105.209 31.7298 108.567 31.7399 111.925 31.7399C114.567 31.7399 117.213 31.7131 119.856 31.75C122.777 31.7936 124.977 33.9325 124.98 36.8471C125.007 52.5011 125.007 68.155 124.983 83.809C124.98 86.7907 122.791 88.8994 119.789 88.99C119.453 89.0001 119.117 88.9968 118.781 88.9968C81.2607 88.9968 43.7398 88.9967 6.22238 88.99C5.47022 88.99 4.69455 89.0068 3.96926 88.8423C1.62882 88.3118 0.0371916 86.2904 0.0204022 83.8056C-0.0131764 79.3163 0.00697077 74.8236 0.00697077 70.3342C0.00697077 59.4214 0.00361291 48.512 0.00697077 37.5992C0.00697077 33.7143 1.99819 31.7399 5.90339 31.7399C11.5278 31.7366 17.1522 31.7332 22.7733 31.7466C23.3106 31.7466 23.8814 31.7601 24.3817 31.9313C25.5268 32.3242 26.1715 33.5531 25.97 34.7653C25.7551 36.0412 24.7511 36.8706 23.2501 36.874C17.7936 36.8941 12.3371 36.884 6.88388 36.884C6.38692 36.8874 5.88996 36.8874 5.25868 36.8874ZM49.4717 83.7519C49.4717 83.1475 49.4717 82.6472 49.4717 82.1502C49.4717 73.4637 49.4717 64.7805 49.4717 56.0939C49.4717 53.4144 50.328 52.5514 53.0076 52.5481C59.3439 52.5414 65.6802 52.5414 72.0165 52.5481C74.6927 52.5514 75.5523 53.4177 75.5523 56.0939C75.5556 64.8208 75.5523 73.5476 75.5523 82.2778C75.5523 82.7614 75.5523 83.2449 75.5523 83.7553C79.9679 83.7553 84.1854 83.7553 88.4834 83.7553C88.4834 57.7258 88.4834 31.7735 88.4834 5.74064C71.1468 5.74064 53.884 5.74064 36.5473 5.74064C36.5473 31.7701 36.5473 57.7224 36.5473 83.7553C40.8319 83.7519 45.0494 83.7519 49.4717 83.7519ZM54.7503 57.7795C54.7503 66.4728 54.7503 75.062 54.7503 83.7284C59.9248 83.7284 65.0623 83.7284 70.2133 83.7284C70.2133 75.0418 70.2133 66.4291 70.2133 57.7795C65.0455 57.7795 59.9751 57.7795 54.7503 57.7795Z" fill="white"/>
<path d="M106.746 57.7324C105.111 57.7324 103.472 57.7526 101.837 57.7257C100.017 57.6989 99.0129 56.7251 99.0028 54.9253C98.9793 51.5676 98.976 48.2098 99.0062 44.852C99.0196 43.2034 100.027 42.1524 101.666 42.1322C105.064 42.0919 108.465 42.0953 111.863 42.1289C113.566 42.1457 114.587 43.2034 114.597 44.9192C114.62 48.2333 114.627 51.5508 114.593 54.8649C114.573 56.7184 113.532 57.6854 111.659 57.7291C111.618 57.7291 111.575 57.7291 111.534 57.7291C109.936 57.7324 108.341 57.7324 106.746 57.7324ZM104.241 52.4238C106.001 52.4238 107.643 52.4238 109.271 52.4238C109.271 50.6811 109.271 49.0358 109.271 47.4073C107.549 47.4073 105.93 47.4073 104.241 47.4073C104.241 49.0862 104.241 50.6979 104.241 52.4238Z" fill="white"/>
<path d="M26.0105 49.9626C26.0105 51.5978 26.0273 53.2364 26.0071 54.8716C25.9836 56.6882 25.0098 57.709 23.2234 57.7258C19.8656 57.7526 16.5111 57.756 13.1532 57.7224C11.5112 57.7056 10.4434 56.6949 10.4199 55.0597C10.3729 51.6213 10.3695 48.1796 10.4232 44.7379C10.4501 43.1731 11.5213 42.1557 13.0928 42.1356C16.5346 42.0986 19.973 42.0919 23.4148 42.1389C24.9762 42.1591 25.9668 43.2235 26.0004 44.8017C26.034 46.5208 26.0071 48.2434 26.0105 49.9626ZM20.7453 52.4473C20.7453 50.7281 20.7453 49.0862 20.7453 47.4342C19.006 47.4342 17.3606 47.4342 15.7388 47.4342C15.7388 49.1735 15.7388 50.8188 15.7388 52.4473C17.458 52.4473 19.0765 52.4473 20.7453 52.4473Z" fill="white"/>
<path d="M26.0099 70.764C26.0099 72.4429 26.03 74.1218 26.0032 75.8007C25.9763 77.5199 24.9858 78.5608 23.2665 78.5809C19.9087 78.6212 16.5541 78.6212 13.1963 78.5809C11.4871 78.5608 10.4361 77.5199 10.416 75.8208C10.3757 72.463 10.3757 69.1053 10.416 65.7508C10.4361 64.0216 11.4636 63.0109 13.1795 62.9941C16.5374 62.9639 19.8919 62.9639 23.2497 62.9908C25.0025 63.0042 25.9528 63.9914 26.0099 65.7273C26.0133 65.8113 26.0133 65.8952 26.0133 65.9792C26.0099 67.5775 26.0099 69.1691 26.0099 70.764ZM15.6979 68.2255C15.6979 69.9984 15.6979 71.6169 15.6979 73.2958C17.4104 73.2958 19.0591 73.2958 20.738 73.2958C20.738 71.5699 20.738 69.9212 20.738 68.2255C19.0188 68.2255 17.4037 68.2255 15.6979 68.2255Z" fill="white"/>
<path d="M98.9934 70.8177C98.9934 69.1825 98.9799 67.5439 98.9967 65.9087C99.0169 63.988 99.947 63.0075 101.834 62.9941C105.148 62.9673 108.466 62.9672 111.78 62.9975C113.583 63.0143 114.577 64.0082 114.594 65.8247C114.624 69.1388 114.628 72.4563 114.591 75.7704C114.571 77.5433 113.519 78.5708 111.733 78.5876C108.419 78.6178 105.101 78.6212 101.787 78.5876C100.001 78.5675 99.0202 77.5299 98.9967 75.7301C98.9799 74.0882 98.9967 72.453 98.9934 70.8177ZM109.315 68.2692C107.549 68.2692 105.904 68.2692 104.238 68.2692C104.238 69.9984 104.238 71.6202 104.238 73.2924C105.961 73.2924 107.61 73.2924 109.315 73.2924C109.315 71.6001 109.315 69.9783 109.315 68.2692Z" fill="white"/>
<path d="M57.2621 18.6849C57.2621 20.3638 57.289 22.0427 57.2554 23.7182C57.2218 25.4474 56.2346 26.4581 54.502 26.4749C51.1441 26.5085 47.7896 26.5085 44.4317 26.4749C42.7797 26.4581 41.7119 25.4642 41.6816 23.8189C41.6212 20.3805 41.6212 16.9388 41.685 13.4971C41.7152 11.8552 42.7931 10.8948 44.4586 10.8814C47.8165 10.8579 51.171 10.8545 54.5288 10.8814C56.2581 10.8948 57.2252 11.8921 57.2588 13.6482C57.289 15.3305 57.2621 17.0093 57.2621 18.6849ZM46.9636 16.1632C46.9636 17.8723 46.9636 19.5176 46.9636 21.1629C48.6962 21.1629 50.3449 21.1629 52.0339 21.1629C52.0339 19.4605 52.0339 17.8488 52.0339 16.1632C50.3114 16.1632 48.6626 16.1632 46.9636 16.1632Z" fill="white"/>
<path d="M67.745 18.6177C67.745 16.9388 67.7182 15.2599 67.7518 13.5844C67.7887 11.9088 68.7591 10.9049 70.4213 10.8881C73.8194 10.8545 77.2176 10.8579 80.6157 10.8881C82.2141 10.9015 83.2852 11.8551 83.3155 13.44C83.3826 16.922 83.3826 20.404 83.3155 23.886C83.2852 25.4676 82.2141 26.4547 80.6325 26.4749C77.2344 26.5152 73.8362 26.5152 70.4381 26.4749C68.7793 26.4547 67.7887 25.4306 67.7518 23.7819C67.7148 22.0594 67.745 20.3402 67.745 18.6177ZM78.057 21.2065C78.057 19.4471 78.057 17.8353 78.057 16.1665C76.3378 16.1665 74.6891 16.1665 73.0001 16.1665C73.0001 17.8857 73.0001 19.5276 73.0001 21.2065C74.7227 21.2065 76.3445 21.2065 78.057 21.2065Z" fill="white"/>
<path d="M49.5284 31.7433C51.2073 31.7433 52.8863 31.7198 54.5618 31.75C56.2676 31.7802 57.2314 32.7036 57.2481 34.4026C57.2851 37.8007 57.2817 41.1988 57.2515 44.5968C57.2381 46.2556 56.2576 47.2898 54.5921 47.3166C51.1939 47.3704 47.7957 47.367 44.3976 47.32C42.7388 47.2965 41.7046 46.2858 41.6777 44.6338C41.6206 41.2357 41.624 37.8376 41.6744 34.4396C41.7012 32.7137 42.7489 31.7903 44.4916 31.7433C44.5756 31.7399 44.6595 31.7433 44.7434 31.7433C46.3384 31.7399 47.9334 31.7399 49.5284 31.7433ZM51.9964 42.0684C51.9964 40.2687 51.9964 38.62 51.9964 36.9948C50.2336 36.9948 48.5882 36.9948 46.9764 36.9948C46.9764 38.7577 46.9764 40.4131 46.9764 42.0684C48.6957 42.0684 50.3209 42.0684 51.9964 42.0684Z" fill="white"/>
<path d="M75.5788 31.7433C77.2141 31.7433 78.8527 31.7265 80.488 31.7466C82.2576 31.7701 83.3019 32.6834 83.3287 34.406C83.3858 37.804 83.3858 41.2021 83.3287 44.6002C83.3019 46.3127 82.2509 47.3032 80.5115 47.3233C77.1973 47.3636 73.8831 47.3603 70.5688 47.3233C68.7422 47.3032 67.765 46.3059 67.7516 44.4995C67.7247 41.1853 67.7247 37.8712 67.7516 34.5571C67.765 32.7036 68.7052 31.7735 70.5453 31.7466C72.2209 31.7231 73.8998 31.7433 75.5788 31.7433ZM72.9664 42.055C74.6889 42.055 76.3444 42.055 78.0602 42.055C78.0602 40.3459 78.0602 38.6905 78.0602 37.0083C76.3242 37.0083 74.6453 37.0083 72.9664 37.0083C72.9664 38.7509 72.9664 40.3694 72.9664 42.055Z" fill="white"/>
</svg>
