<svg width="28" height="27" viewBox="0 0 28 27" fill="none" xmlns="http://www.w3.org/2000/svg">
<path d="M13.8781 0.786682C15.5939 0.82026 17.1587 1.53547 17.696 3.13377C18.7 6.12891 20.6542 7.15303 23.673 7.46866C27.0745 7.82123 28.421 12.0084 26.2317 14.6644C25.9395 15.0203 25.6407 15.4031 25.2612 15.6448C23.2364 16.9242 23.0383 18.6904 23.6495 20.8259C24.2304 22.8506 23.7636 24.6773 21.9907 25.97C20.2614 27.2292 18.344 27.209 16.7121 25.9834C14.5295 24.3449 12.733 24.9257 10.6209 26.1513C7.49476 27.9645 3.82797 25.923 3.78768 22.4779C3.77424 21.2792 4.01601 20.0536 4.30143 18.8817C4.51297 18.0121 4.27121 17.4681 3.63993 16.9208C2.94149 16.3198 2.30014 15.6516 1.66215 14.9867C0.423097 13.6973 0.0369393 12.1528 0.557409 10.4604C1.09467 8.70768 2.32701 7.45187 4.15704 7.4015C7.16233 7.32092 8.92521 6.02146 9.90571 3.16735C10.4665 1.50525 12.0514 0.79004 13.8781 0.786682ZM14.0191 6.88441C13.9184 6.94485 13.8176 7.00529 13.7169 7.06237C13.277 7.94882 12.8002 8.82184 12.4107 9.7318C11.8634 11.0111 10.9433 11.7062 9.55314 11.8438C8.576 11.9412 7.60893 12.1259 6.1046 12.3509C9.78818 14.5133 10.6075 17.3775 9.18041 21.1147C12.2663 18.5325 15.2346 18.5124 18.2164 21.1348C18.0955 19.1974 17.5516 17.4446 18.0183 16.0243C18.4783 14.6241 19.9625 13.5597 21.2419 12.0621C17.152 12.5154 14.8552 10.7056 14.0191 6.88441Z" fill="white"/>
</svg>
