<svg width="125" height="45" viewBox="0 0 125 45" fill="none" xmlns="http://www.w3.org/2000/svg">
<path d="M84.1216 29.4424C84.5463 28.8858 84.8794 28.4683 85.1943 28.0399C89.573 22.1182 93.948 16.1966 98.3304 10.275C99.5972 8.5611 100.454 8.55744 101.677 10.2676C109.204 20.7999 116.731 31.3284 124.233 41.879C124.581 42.3697 124.888 43.0289 124.863 43.5965C124.848 43.992 124.237 44.6805 123.892 44.6805C123.31 44.6768 122.527 44.3912 122.186 43.9517C120.488 41.7398 118.946 39.407 117.247 37.1951C116.794 36.6019 116.047 36.0892 115.336 35.8658C112.722 35.0528 110.057 34.4009 107.425 33.6429C106.722 33.4415 106.253 33.5037 105.792 34.1336C105.118 35.0564 104.331 35.8914 103.602 36.774C102.969 37.5357 102.197 37.9166 101.351 37.2464C100.425 36.5103 100.699 35.6607 101.38 34.8624C102.42 33.6429 103.478 32.438 104.459 31.1746C105.129 30.314 105.909 30.1822 106.886 30.4568C109.076 31.0757 111.273 31.6653 113.861 32.3721C111.675 29.3069 109.706 26.5494 107.663 23.6856C106.011 24.44 104.408 25.1797 102.797 25.9048C101.358 26.5494 100.791 26.3223 100.11 24.8611C99.7839 24.158 99.4654 23.4549 99.07 22.587C97.6897 23.2645 96.3607 23.92 95.0281 24.5755C94.618 24.7769 94.2226 25.0296 93.7906 25.1651C90.1222 26.3187 87.7827 28.992 85.8679 32.1231C85.6446 32.4857 85.6519 33.0276 85.6666 33.4854C85.6739 33.7857 85.8862 34.0787 85.9997 34.379C86.3365 35.2762 86.3878 36.1771 85.3663 36.5945C84.3156 37.023 83.6529 36.4554 83.2649 35.4483C81.7492 31.5262 80.2151 27.615 78.6811 23.7039C78.1356 22.3087 77.5755 20.9207 77.03 19.5511C76.0231 20.5179 75.0346 21.4004 74.145 22.3709C73.9363 22.598 73.9253 23.2095 74.0754 23.5171C74.5331 24.4583 75.1115 25.3445 75.6534 26.2454C76.1732 27.1097 76.122 27.886 75.3275 28.5672C73.7972 29.8782 72.2741 31.1929 70.7511 32.5076C69.9823 33.1705 69.1549 33.3243 68.4739 32.4783C67.7929 31.636 68.148 30.8633 68.9059 30.2188C70.158 29.1568 71.3991 28.0801 72.6732 26.9852C72.0764 25.9634 71.5785 24.982 70.9635 24.0848C70.136 22.8836 70.3191 21.9315 71.3552 20.9537C72.5853 19.7928 73.7166 18.5294 74.8882 17.3062C75.8584 16.2955 75.8547 16.2955 75.0932 14.8563C73.5446 15.4239 71.9739 15.9988 70.4033 16.5775C68.3091 17.3465 68.2359 17.3245 66.9362 15.4715C66.8081 15.2884 66.6506 15.1236 66.4456 14.8746C62.3305 17.0023 58.23 19.108 54.1515 21.2503C53.7232 21.4774 53.39 21.8985 53.0386 22.2574C46.0165 29.3399 38.9945 36.4297 31.9761 43.5159C31.6868 43.8089 31.4013 44.1092 31.0974 44.3838C30.4677 44.9588 29.7647 45.0394 29.1314 44.4571C28.4467 43.8345 28.4577 43.0655 29.0398 42.377C29.5707 41.7508 30.1711 41.1795 30.7606 40.6045C33.5833 37.8616 36.4097 35.1297 39.3203 32.3099C37.2664 29.5303 35.3809 26.9742 33.3929 24.2825C32.6936 25.1981 32.1042 25.9927 31.4928 26.7691C30.6105 27.8897 29.816 28.0728 28.8714 27.0804C27.7841 25.9415 26.715 25.751 25.3604 26.4468C24.8808 26.6959 24.3206 26.7874 23.8008 26.9632C22.8562 27.2855 22.1276 27.0547 21.5345 26.2234C20.5826 24.8904 19.5831 23.5977 18.4335 22.0633C18.2065 22.6236 17.9649 22.9642 17.9466 23.3121C17.8661 25.004 17.8111 26.6995 17.8441 28.3878C17.8514 28.7064 18.2358 29.1714 18.5544 29.2996C19.4404 29.6585 20.3776 29.8892 21.3002 30.1456C22.3217 30.4312 22.8525 31.0245 22.7171 32.1414C22.4901 34.0494 22.318 35.961 22.08 37.8689C21.9629 38.7955 21.432 39.4473 20.4325 39.3155C19.466 39.1873 19.0523 38.4915 19.1548 37.5247C19.3195 35.983 19.5026 34.4412 19.693 32.7603C18.7118 32.46 17.7672 32.167 16.8226 31.8777C15.0067 31.3174 14.8566 31.105 14.9005 29.1421C14.9115 28.6478 14.9005 28.1534 14.9005 27.2928C14.4429 27.8567 14.1647 28.1717 13.923 28.5086C10.3534 33.4927 6.79114 38.4769 3.22519 43.461C3.01285 43.7576 2.81149 44.0726 2.55887 44.3326C1.96211 44.9515 1.16032 45.0943 0.629453 44.4644C0.274323 44.0433 0.274327 43.2559 0.277988 42.6334C0.281649 42.3294 0.655084 42.0291 0.86743 41.7325C8.31051 31.3101 15.7573 20.8914 23.204 10.4691C24.6025 8.50983 25.3677 8.49884 26.7919 10.4251C31.3061 16.5298 35.8166 22.6382 40.3308 28.7466C40.6017 29.1128 40.8873 29.4644 41.5609 30.3287C41.8648 29.7684 42.0186 29.2374 42.3627 28.8931C51.4936 19.6426 60.6427 10.4141 69.7882 1.18195C69.9164 1.05011 70.0408 0.918279 70.1727 0.790105C71.4357 -0.425715 72.4462 -0.246271 73.0906 1.38337C74.8919 5.92804 76.6565 10.4874 78.4322 15.0394C80.1126 19.3387 81.7894 23.6343 83.4699 27.9336C83.6346 28.3731 83.8433 28.8089 84.1216 29.4424Z" fill="white"/>
</svg>
