<svg width="125" height="78" viewBox="0 0 125 78" fill="none" xmlns="http://www.w3.org/2000/svg">
<path d="M121.23 49.199C125.327 49.3491 124.971 49.4114 124.99 53.2529C124.997 55.1279 125.012 57.0065 124.982 58.8815C124.961 60.4086 124.521 60.8334 122.998 60.8371C119.432 60.8517 115.866 60.8407 112.63 60.8407C111.48 63.1369 110.433 65.2316 109.375 67.3519C109.481 67.3593 109.858 67.4178 110.235 67.4178C114.398 67.4252 118.565 67.4178 122.727 67.4252C124.558 67.4288 124.979 67.85 124.986 69.6993C124.997 71.805 125.008 73.9107 124.982 76.0164C124.961 77.5325 124.514 77.9464 122.987 77.994C122.669 78.0049 122.346 77.9976 122.028 77.9976C82.3523 77.9976 42.6766 77.9976 3.0009 77.9976C2.59085 77.9976 2.17714 77.994 1.7671 77.994C0.573567 77.9866 0.0134128 77.3531 0.0097517 76.1922C0.00609057 73.951 -0.0122115 71.7062 0.0134164 69.465C0.0280609 67.9049 0.511331 67.4398 2.0966 67.4325C6.16778 67.4215 10.2426 67.4288 14.3138 67.4288C14.8154 67.4288 15.3133 67.4288 15.6757 67.4288C14.6067 65.3195 13.5376 63.2028 12.3441 60.8517C9.24679 60.8517 5.77604 60.8554 2.30528 60.8517C0.3539 60.8481 0.0134148 60.5038 0.00609258 58.5153C-0.00122968 56.3181 0.00243145 54.1208 0.00609258 51.9236C0.00975371 49.6018 0.298982 49.3125 2.59085 49.2942C2.90937 49.2905 3.22789 49.2942 3.76608 49.2942C3.76608 48.7192 3.76608 48.1919 3.76608 47.6646C3.76608 32.9247 3.76608 18.1847 3.76608 3.44851C3.76608 1.32083 4.12486 0.954625 6.21171 0.954625C31.565 0.954625 56.9147 0.932654 82.2681 0.961951C100.998 0.983924 116.221 13.0908 120.267 31.2511C120.886 34.0343 121.054 36.942 121.201 39.802C121.351 42.8928 121.23 46.002 121.23 49.199ZM45.7336 40.9007C70.0033 40.9007 94.0862 40.9007 118.092 40.9007C118.092 39.0806 118.092 37.3668 118.092 35.5614C117.378 35.5614 116.833 35.5614 116.287 35.5614C107.318 35.5614 98.3514 35.543 89.3816 35.5687C86.5333 35.576 84.3659 34.3565 82.7184 32.1263C81.3491 30.2733 80.6169 28.1676 80.5949 25.8641C80.5546 21.9274 80.5693 17.9907 80.562 14.0576C80.562 13.5705 80.562 13.0835 80.562 12.5525C55.875 12.5525 31.3747 12.5525 6.84875 12.5525C6.84875 22.0592 6.84875 31.4928 6.84875 40.93C11.9817 40.93 16.9974 40.93 22.1742 40.93C22.1742 40.3697 22.1742 39.8826 22.1742 39.3919C22.1742 32.8917 22.1706 26.3915 22.1779 19.8949C22.1816 18.2873 22.6429 17.7709 24.1659 17.7673C30.7083 17.7526 37.2544 17.749 43.7969 17.7673C45.2577 17.7709 45.7263 18.2873 45.73 19.7997C45.7446 23.5973 45.7336 27.3986 45.7336 31.1961C45.7336 34.3968 45.7336 37.5938 45.7336 40.9007ZM117.484 32.6427C117.484 32.3131 117.499 32.1776 117.481 32.0494C117.444 31.7784 117.411 31.5038 117.345 31.2364C115.61 24.1063 112.051 18.0419 106.607 13.1201C106.164 12.7209 105.395 12.5122 104.777 12.5085C98.1464 12.4646 91.5124 12.4792 84.8821 12.4865C84.4428 12.4865 84.0034 12.5341 83.4506 12.5671C83.4506 14.1748 83.4323 15.6762 83.4543 17.1777C83.5019 20.4223 83.3737 23.6852 83.6813 26.9078C84.0437 30.6944 86.4601 32.6427 90.22 32.6427C98.7724 32.6463 107.325 32.6427 115.881 32.6427C116.371 32.6427 116.869 32.6427 117.484 32.6427ZM42.6693 49.2356C42.6693 39.6592 42.6693 30.222 42.6693 20.8031C36.7822 20.8031 31.0012 20.8031 25.2386 20.8031C25.2386 30.3356 25.2386 39.7728 25.2386 49.2356C31.0854 49.2356 36.8334 49.2356 42.6693 49.2356ZM118.209 43.9878C94.0606 43.9878 69.9703 43.9878 45.8178 43.9878C45.8178 45.7603 45.8178 47.4668 45.8178 49.199C69.9886 49.199 94.0752 49.199 118.209 49.199C118.209 47.4338 118.209 45.7529 118.209 43.9878ZM90.0626 60.892C71.7789 60.892 53.2097 60.892 34.9443 60.892C33.802 63.1662 32.7329 65.2865 31.7188 67.308C52.1845 67.308 72.859 67.308 93.2515 67.308C92.219 65.2352 91.1793 63.1405 90.0626 60.892ZM22.1193 43.9951C16.9132 43.9951 11.8718 43.9951 6.8341 43.9951C6.8341 45.7969 6.8341 47.5034 6.8341 49.199C11.9817 49.199 17.023 49.199 22.1193 49.199C22.1193 47.4412 22.1193 45.7676 22.1193 43.9951ZM31.3893 60.9506C26.1649 60.9506 21.0356 60.9506 15.8881 60.9506C16.6825 64.9899 20.0069 67.568 24.111 67.4142C27.7318 67.2823 31.0195 64.382 31.3893 60.9506ZM93.6249 60.9103C93.8189 64.2208 97.2055 67.2604 100.83 67.4142C104.993 67.59 108.544 64.8141 109.075 60.9103C103.92 60.9103 98.7724 60.9103 93.6249 60.9103Z" fill="white"/>
</svg>
